# xmcd
#
# Track frame offsets:
#	150
#	12810
#	21158
#	31283
#	46158
#	54268
#	63528
#	77035
#	90728
#
# Disc length: 1324 seconds
#
# Revision: 2
# Processed by: cddbd v1.5.2PL0 Copyright (c) Steve Scherf et al.
# Submitted via: EZCDAudioConverter 6.0.5.1
#
DISCID=63052a09
DTITLE=Willie Nelson - Slow Down Old World
DYEAR=1996
DGENRE=Country
TTITLE0=Any Old Arms Won't Do
TTITLE1=Slow Down Old World
TTITLE2=Healing Hands Of time
TTITLE3=And So Will You My Love
TTITLE4=Things To Remember
TTITLE5=One Step Beyond
TTITLE6=Imdo The Wrtong
TTITLE7=Home Is Where You're Happy
TTITLE8=Why Are You Picking On Me
EXTD=
EXTT0=
EXTT1=
EXTT2=
EXTT3=
EXTT4=
EXTT5=
EXTT6=
EXTT7=
EXTT8=
PLAYORDER=
